<?xml version="1.0" standalone="no"?><!DOCTYPE svg PUBLIC "-//W3C//DTD SVG 1.1//EN" "http://www.w3.org/Graphics/SVG/1.1/DTD/svg11.dtd"><svg t="1709541179683" class="icon" viewBox="0 0 1024 1024" version="1.1" xmlns="http://www.w3.org/2000/svg" p-id="22206" data-spm-anchor-id="a313x.search_index.0.i0.5d5c3a814IHXt6" xmlns:xlink="http://www.w3.org/1999/xlink" width="200" height="200"><path d="M112 672c132.544 0 240 107.456 240 240 0 15.904-1.552 31.6-4.608 46.976l-0.224 1.024h-65.6l1.856-7.888c3.04-13.04 4.576-26.464 4.576-40.112 0-97.2-78.8-176-176-176-11.328 0-22.512 1.072-33.44 3.168l-6.512 1.376-8.048 1.872v-65.6l1.2-0.256C80.512 673.536 96.16 672 112 672z m0-160c220.912 0 400 179.088 400 400 0 13.856-0.704 27.616-2.112 41.28l-0.784 6.72h-64.48l0.608-4.688A339.52 339.52 0 0 0 448 912c0-185.568-150.432-336-336-336-11.616 0-23.152 0.592-34.592 1.76l-8.544 0.976L64 579.36v-64.48l6.912-0.8C84.512 512.704 98.208 512 112 512z m0-192c326.96 0 592 265.04 592 592 0 12.544-0.384 25.056-1.168 37.504l-0.768 10.496h-64.208l0.288-3.408c1.232-14.768 1.856-29.632 1.856-44.592 0-291.6-236.4-528-528-528-11.2 0-22.352 0.352-33.44 1.04l-11.088 0.8-3.472 0.288v-64.192l10.56-0.768A600.56 600.56 0 0 1 112 320z" fill="#1296db" p-id="22207"></path><path d="M950.64 97.344a31.888 31.888 0 0 1 0 45.12L702.112 390.688a31.84 31.84 0 0 1-18.72 9.12L680.8 400h-2.576a31.856 31.856 0 0 1-21.296-9.328l-0.048-0.032-135.52-135.36a31.888 31.888 0 0 1 0-45.12c12.48-12.464 32.704-12.464 45.184 0l112.96 112.816L905.456 97.344c12.48-12.464 32.704-12.464 45.184 0z" fill="#1296db" p-id="22208"></path></svg>